<svg width="593" height="102" viewBox="0 0 593 102" fill="none" xmlns="http://www.w3.org/2000/svg">
<path d="M1.32031 78V66.625H4.53125C5.52083 66.625 6.39583 66.8438 7.15625 67.2812C7.91667 67.7188 8.5026 68.3411 8.91406 69.1484C9.33073 69.9557 9.54167 70.8828 9.54688 71.9297V72.6562C9.54688 73.7292 9.33854 74.6693 8.92188 75.4766C8.51042 76.2839 7.91927 76.9036 7.14844 77.3359C6.38281 77.7682 5.48958 77.9896 4.46875 78H1.32031ZM2.82031 67.8594V76.7734H4.39844C5.55469 76.7734 6.45312 76.4141 7.09375 75.6953C7.73958 74.9766 8.0625 73.9531 8.0625 72.625V71.9609C8.0625 70.6693 7.75781 69.6667 7.14844 68.9531C6.54427 68.2344 5.6849 67.8698 4.57031 67.8594H2.82031ZM16.8125 78C16.7292 77.8333 16.6615 77.5365 16.6094 77.1094C15.9375 77.8073 15.1354 78.1562 14.2031 78.1562C13.3698 78.1562 12.6849 77.9219 12.1484 77.4531C11.6172 76.9792 11.3516 76.3802 11.3516 75.6562C11.3516 74.776 11.6849 74.0938 12.3516 73.6094C13.0234 73.1198 13.9661 72.875 15.1797 72.875H16.5859V72.2109C16.5859 71.7057 16.4349 71.3047 16.1328 71.0078C15.8307 70.7057 15.3854 70.5547 14.7969 70.5547C14.2812 70.5547 13.849 70.6849 13.5 70.9453C13.151 71.2057 12.9766 71.5208 12.9766 71.8906H11.5234C11.5234 71.4688 11.6719 71.0625 11.9688 70.6719C12.2708 70.276 12.6771 69.9635 13.1875 69.7344C13.7031 69.5052 14.2682 69.3906 14.8828 69.3906C15.8568 69.3906 16.6198 69.6354 17.1719 70.125C17.724 70.6094 18.0104 71.2786 18.0312 72.1328V76.0234C18.0312 76.7995 18.1302 77.4167 18.3281 77.875V78H16.8125ZM14.4141 76.8984C14.8672 76.8984 15.2969 76.7812 15.7031 76.5469C16.1094 76.3125 16.4036 76.0078 16.5859 75.6328V73.8984H15.4531C13.6823 73.8984 12.7969 74.4167 12.7969 75.4531C12.7969 75.9062 12.9479 76.2604 13.25 76.5156C13.5521 76.7708 13.9401 76.8984 14.4141 76.8984ZM21.6641 69.5469L21.7109 70.6094C22.3568 69.7969 23.2005 69.3906 24.2422 69.3906C26.0286 69.3906 26.9297 70.3984 26.9453 72.4141V78H25.5V72.4062C25.4948 71.7969 25.3542 71.3464 25.0781 71.0547C24.8073 70.763 24.3828 70.6172 23.8047 70.6172C23.3359 70.6172 22.9245 70.7422 22.5703 70.9922C22.2161 71.2422 21.9401 71.5703 21.7422 71.9766V78H20.2969V69.5469H21.6641ZM34.0469 75.7578C34.0469 75.3672 33.8984 75.0651 33.6016 74.8516C33.3099 74.6328 32.7969 74.4453 32.0625 74.2891C31.3333 74.1328 30.7526 73.9453 30.3203 73.7266C29.8932 73.5078 29.5755 73.2474 29.3672 72.9453C29.1641 72.6432 29.0625 72.2839 29.0625 71.8672C29.0625 71.1745 29.3542 70.5885 29.9375 70.1094C30.526 69.6302 31.276 69.3906 32.1875 69.3906C33.1458 69.3906 33.9219 69.638 34.5156 70.1328C35.1146 70.6276 35.4141 71.2604 35.4141 72.0312H33.9609C33.9609 71.6354 33.7917 71.2943 33.4531 71.0078C33.1198 70.7214 32.6979 70.5781 32.1875 70.5781C31.6615 70.5781 31.25 70.6927 30.9531 70.9219C30.6562 71.151 30.5078 71.4505 30.5078 71.8203C30.5078 72.1693 30.6458 72.4323 30.9219 72.6094C31.1979 72.7865 31.6953 72.9557 32.4141 73.1172C33.138 73.2786 33.724 73.4714 34.1719 73.6953C34.6198 73.9193 34.9505 74.1901 35.1641 74.5078C35.3828 74.8203 35.4922 75.2031 35.4922 75.6562C35.4922 76.4115 35.1901 77.0182 34.5859 77.4766C33.9818 77.9297 33.1979 78.1562 32.2344 78.1562C31.5573 78.1562 30.9583 78.0365 30.4375 77.7969C29.9167 77.5573 29.5078 77.224 29.2109 76.7969C28.9193 76.3646 28.7734 75.8984 28.7734 75.3984H30.2188C30.2448 75.8828 30.4375 76.2682 30.7969 76.5547C31.1615 76.8359 31.6406 76.9766 32.2344 76.9766C32.7812 76.9766 33.2188 76.8672 33.5469 76.6484C33.8802 76.4245 34.0469 76.1276 34.0469 75.7578ZM39.7344 74.0859L38.8281 75.0312V78H37.3828V66H38.8281V73.2578L39.6016 72.3281L42.2344 69.5469H43.9922L40.7031 73.0781L44.375 78H42.6797L39.7344 74.0859ZM51.6172 66.625L55.3359 75.9062L59.0547 66.625H61V78H59.5V73.5703L59.6406 68.7891L55.9062 78H54.7578L51.0312 68.8125L51.1797 73.5703V78H49.6797V66.625H51.6172ZM72.1875 78.1562C70.8281 78.1562 69.7943 77.6875 69.0859 76.75C68.7474 77.1979 68.2839 77.5443 67.6953 77.7891C67.1068 78.0339 66.4453 78.1562 65.7109 78.1562C64.8411 78.1562 64.1615 77.9323 63.6719 77.4844C63.1823 77.0312 62.9375 76.4115 62.9375 75.625C62.9375 74.8073 63.2318 74.1719 63.8203 73.7188C64.4141 73.2656 65.2865 73.0391 66.4375 73.0391H68.1797V72.375C68.1797 71.8177 68.0365 71.3802 67.75 71.0625C67.4635 70.7396 67.0495 70.5781 66.5078 70.5781C65.9609 70.5781 65.5052 70.7214 65.1406 71.0078C64.776 71.2943 64.5938 71.6484 64.5938 72.0703L63.1562 71.9219C63.1562 71.1771 63.4714 70.5703 64.1016 70.1016C64.7318 69.6276 65.5339 69.3906 66.5078 69.3906C67.1068 69.3906 67.6354 69.5 68.0938 69.7188C68.5521 69.9323 68.9115 70.2552 69.1719 70.6875C69.5 70.276 69.8906 69.9583 70.3438 69.7344C70.7969 69.5052 71.2969 69.3906 71.8438 69.3906C72.9375 69.3906 73.7865 69.7266 74.3906 70.3984C74.9948 71.0651 75.2969 72.0052 75.2969 73.2188V74.1172H69.6094C69.6458 75.0339 69.8906 75.7422 70.3438 76.2422C70.7969 76.737 71.4115 76.9844 72.1875 76.9844C72.9583 76.9844 73.6589 76.7865 74.2891 76.3906L74.6562 76.1484L75.1562 77.2109C74.3333 77.8411 73.3438 78.1562 72.1875 78.1562ZM65.9922 76.9844C66.3672 76.9844 66.7604 76.888 67.1719 76.6953C67.5833 76.5026 67.9193 76.2656 68.1797 75.9844V74.1328H66.3984C65.7891 74.1432 65.3021 74.2917 64.9375 74.5781C64.5729 74.8646 64.3906 75.224 64.3906 75.6562C64.3906 76.0573 64.5286 76.3802 64.8047 76.625C65.0807 76.8646 65.4766 76.9844 65.9922 76.9844ZM71.8438 70.5781C71.2448 70.5781 70.75 70.8021 70.3594 71.25C69.974 71.6927 69.737 72.276 69.6484 73H73.8516V72.7578C73.8516 72.0703 73.6771 71.5365 73.3281 71.1562C72.9792 70.7708 72.4844 70.5781 71.8438 70.5781ZM76.5938 73.7031C76.5938 72.3854 76.8984 71.3385 77.5078 70.5625C78.1172 69.7812 78.9245 69.3906 79.9297 69.3906C80.9609 69.3906 81.7656 69.7552 82.3438 70.4844L82.4141 69.5469H83.7344V77.7969C83.7344 78.8906 83.4089 79.7526 82.7578 80.3828C82.112 81.013 81.2422 81.3281 80.1484 81.3281C79.5391 81.3281 78.9427 81.1979 78.3594 80.9375C77.776 80.6771 77.3307 80.3203 77.0234 79.8672L77.7734 79C78.3932 79.7656 79.151 80.1484 80.0469 80.1484C80.75 80.1484 81.2969 79.9505 81.6875 79.5547C82.0833 79.1589 82.2812 78.6016 82.2812 77.8828V77.1562C81.7031 77.8229 80.9141 78.1562 79.9141 78.1562C78.9245 78.1562 78.1224 77.7578 77.5078 76.9609C76.8984 76.1641 76.5938 75.0781 76.5938 73.7031ZM78.0469 73.8672C78.0469 74.8203 78.2422 75.5703 78.6328 76.1172C79.0234 76.6589 79.5703 76.9297 80.2734 76.9297C81.1849 76.9297 81.8542 76.5156 82.2812 75.6875V71.8281C81.8385 71.0208 81.1745 70.6172 80.2891 70.6172C79.5859 70.6172 79.0365 70.8906 78.6406 71.4375C78.2448 71.9844 78.0469 72.7943 78.0469 73.8672ZM87.4922 78H86.0469V66H87.4922V78ZM93.3203 78.1562C92.1745 78.1562 91.2422 77.7812 90.5234 77.0312C89.8047 76.276 89.4453 75.2682 89.4453 74.0078V73.7422C89.4453 72.9036 89.6042 72.1562 89.9219 71.5C90.2448 70.8385 90.6927 70.3229 91.2656 69.9531C91.8438 69.5781 92.4688 69.3906 93.1406 69.3906C94.2396 69.3906 95.0938 69.7526 95.7031 70.4766C96.3125 71.2005 96.6172 72.237 96.6172 73.5859V74.1875H90.8906C90.9115 75.0208 91.1536 75.6953 91.6172 76.2109C92.0859 76.7214 92.6797 76.9766 93.3984 76.9766C93.9089 76.9766 94.3411 76.8724 94.6953 76.6641C95.0495 76.4557 95.3594 76.1797 95.625 75.8359L96.5078 76.5234C95.7995 77.612 94.737 78.1562 93.3203 78.1562ZM93.1406 70.5781C92.5573 70.5781 92.0677 70.7917 91.6719 71.2188C91.276 71.6406 91.0312 72.2344 90.9375 73H95.1719V72.8906C95.1302 72.1562 94.9323 71.5885 94.5781 71.1875C94.224 70.7812 93.7448 70.5781 93.1406 70.5781ZM102.383 70.8438C102.164 70.8073 101.927 70.7891 101.672 70.7891C100.724 70.7891 100.081 71.1927 99.7422 72V78H98.2969V69.5469H99.7031L99.7266 70.5234C100.201 69.7682 100.872 69.3906 101.742 69.3906C102.023 69.3906 102.237 69.4271 102.383 69.5V70.8438ZM111.266 72.9297C109.979 72.5599 109.042 72.1068 108.453 71.5703C107.87 71.0286 107.578 70.362 107.578 69.5703C107.578 68.6745 107.935 67.9349 108.648 67.3516C109.367 66.763 110.299 66.4688 111.445 66.4688C112.227 66.4688 112.922 66.6198 113.531 66.9219C114.146 67.224 114.62 67.6406 114.953 68.1719C115.292 68.7031 115.461 69.2839 115.461 69.9141H113.953C113.953 69.2266 113.734 68.6875 113.297 68.2969C112.859 67.901 112.242 67.7031 111.445 67.7031C110.706 67.7031 110.128 67.8672 109.711 68.1953C109.299 68.5182 109.094 68.9688 109.094 69.5469C109.094 70.0104 109.289 70.4036 109.68 70.7266C110.076 71.0443 110.745 71.3359 111.688 71.6016C112.635 71.8672 113.375 72.1615 113.906 72.4844C114.443 72.8021 114.839 73.1745 115.094 73.6016C115.354 74.0286 115.484 74.5312 115.484 75.1094C115.484 76.0312 115.125 76.7708 114.406 77.3281C113.688 77.8802 112.727 78.1562 111.523 78.1562C110.742 78.1562 110.013 78.0078 109.336 77.7109C108.659 77.4089 108.135 76.9974 107.766 76.4766C107.401 75.9557 107.219 75.3646 107.219 74.7031H108.727C108.727 75.3906 108.979 75.9349 109.484 76.3359C109.995 76.7318 110.674 76.9297 111.523 76.9297C112.315 76.9297 112.922 76.7682 113.344 76.4453C113.766 76.1224 113.977 75.6823 113.977 75.125C113.977 74.5677 113.781 74.138 113.391 73.8359C113 73.5286 112.292 73.2266 111.266 72.9297ZM122.406 78C122.323 77.8333 122.255 77.5365 122.203 77.1094C121.531 77.8073 120.729 78.1562 119.797 78.1562C118.964 78.1562 118.279 77.9219 117.742 77.4531C117.211 76.9792 116.945 76.3802 116.945 75.6562C116.945 74.776 117.279 74.0938 117.945 73.6094C118.617 73.1198 119.56 72.875 120.773 72.875H122.18V72.2109C122.18 71.7057 122.029 71.3047 121.727 71.0078C121.424 70.7057 120.979 70.5547 120.391 70.5547C119.875 70.5547 119.443 70.6849 119.094 70.9453C118.745 71.2057 118.57 71.5208 118.57 71.8906H117.117C117.117 71.4688 117.266 71.0625 117.562 70.6719C117.865 70.276 118.271 69.9635 118.781 69.7344C119.297 69.5052 119.862 69.3906 120.477 69.3906C121.451 69.3906 122.214 69.6354 122.766 70.125C123.318 70.6094 123.604 71.2786 123.625 72.1328V76.0234C123.625 76.7995 123.724 77.4167 123.922 77.875V78H122.406ZM120.008 76.8984C120.461 76.8984 120.891 76.7812 121.297 76.5469C121.703 76.3125 121.997 76.0078 122.18 75.6328V73.8984H121.047C119.276 73.8984 118.391 74.4167 118.391 75.4531C118.391 75.9062 118.542 76.2604 118.844 76.5156C119.146 76.7708 119.534 76.8984 120.008 76.8984ZM127.25 69.5469L127.289 70.4844C127.909 69.7552 128.745 69.3906 129.797 69.3906C130.979 69.3906 131.784 69.8438 132.211 70.75C132.492 70.3438 132.857 70.0156 133.305 69.7656C133.758 69.5156 134.292 69.3906 134.906 69.3906C136.76 69.3906 137.703 70.3724 137.734 72.3359V78H136.289V72.4219C136.289 71.8177 136.151 71.3672 135.875 71.0703C135.599 70.7682 135.135 70.6172 134.484 70.6172C133.948 70.6172 133.503 70.7786 133.148 71.1016C132.794 71.4193 132.589 71.849 132.531 72.3906V78H131.078V72.4609C131.078 71.2318 130.477 70.6172 129.273 70.6172C128.326 70.6172 127.677 71.0208 127.328 71.8281V78H125.883V69.5469H127.25ZM141.281 69.5469L141.32 70.4844C141.94 69.7552 142.776 69.3906 143.828 69.3906C145.01 69.3906 145.815 69.8438 146.242 70.75C146.523 70.3438 146.888 70.0156 147.336 69.7656C147.789 69.5156 148.323 69.3906 148.938 69.3906C150.792 69.3906 151.734 70.3724 151.766 72.3359V78H150.32V72.4219C150.32 71.8177 150.182 71.3672 149.906 71.0703C149.63 70.7682 149.167 70.6172 148.516 70.6172C147.979 70.6172 147.534 70.7786 147.18 71.1016C146.826 71.4193 146.62 71.849 146.562 72.3906V78H145.109V72.4609C145.109 71.2318 144.508 70.6172 143.305 70.6172C142.357 70.6172 141.708 71.0208 141.359 71.8281V78H139.914V69.5469H141.281ZM157.461 78.1562C156.315 78.1562 155.383 77.7812 154.664 77.0312C153.945 76.276 153.586 75.2682 153.586 74.0078V73.7422C153.586 72.9036 153.745 72.1562 154.062 71.5C154.385 70.8385 154.833 70.3229 155.406 69.9531C155.984 69.5781 156.609 69.3906 157.281 69.3906C158.38 69.3906 159.234 69.7526 159.844 70.4766C160.453 71.2005 160.758 72.237 160.758 73.5859V74.1875H155.031C155.052 75.0208 155.294 75.6953 155.758 76.2109C156.227 76.7214 156.82 76.9766 157.539 76.9766C158.049 76.9766 158.482 76.8724 158.836 76.6641C159.19 76.4557 159.5 76.1797 159.766 75.8359L160.648 76.5234C159.94 77.612 158.878 78.1562 157.461 78.1562ZM157.281 70.5781C156.698 70.5781 156.208 70.7917 155.812 71.2188C155.417 71.6406 155.172 72.2344 155.078 73H159.312V72.8906C159.271 72.1562 159.073 71.5885 158.719 71.1875C158.365 70.7812 157.885 70.5781 157.281 70.5781ZM163.805 69.5469L163.852 70.6094C164.497 69.7969 165.341 69.3906 166.383 69.3906C168.169 69.3906 169.07 70.3984 169.086 72.4141V78H167.641V72.4062C167.635 71.7969 167.495 71.3464 167.219 71.0547C166.948 70.763 166.523 70.6172 165.945 70.6172C165.477 70.6172 165.065 70.7422 164.711 70.9922C164.357 71.2422 164.081 71.5703 163.883 71.9766V78H162.438V69.5469H163.805ZM176.188 75.7578C176.188 75.3672 176.039 75.0651 175.742 74.8516C175.451 74.6328 174.938 74.4453 174.203 74.2891C173.474 74.1328 172.893 73.9453 172.461 73.7266C172.034 73.5078 171.716 73.2474 171.508 72.9453C171.305 72.6432 171.203 72.2839 171.203 71.8672C171.203 71.1745 171.495 70.5885 172.078 70.1094C172.667 69.6302 173.417 69.3906 174.328 69.3906C175.286 69.3906 176.062 69.638 176.656 70.1328C177.255 70.6276 177.555 71.2604 177.555 72.0312H176.102C176.102 71.6354 175.932 71.2943 175.594 71.0078C175.26 70.7214 174.839 70.5781 174.328 70.5781C173.802 70.5781 173.391 70.6927 173.094 70.9219C172.797 71.151 172.648 71.4505 172.648 71.8203C172.648 72.1693 172.786 72.4323 173.062 72.6094C173.339 72.7865 173.836 72.9557 174.555 73.1172C175.279 73.2786 175.865 73.4714 176.312 73.6953C176.76 73.9193 177.091 74.1901 177.305 74.5078C177.523 74.8203 177.633 75.2031 177.633 75.6562C177.633 76.4115 177.331 77.0182 176.727 77.4766C176.122 77.9297 175.339 78.1562 174.375 78.1562C173.698 78.1562 173.099 78.0365 172.578 77.7969C172.057 77.5573 171.648 77.224 171.352 76.7969C171.06 76.3646 170.914 75.8984 170.914 75.3984H172.359C172.385 75.8828 172.578 76.2682 172.938 76.5547C173.302 76.8359 173.781 76.9766 174.375 76.9766C174.922 76.9766 175.359 76.8672 175.688 76.6484C176.021 76.4245 176.188 76.1276 176.188 75.7578ZM181.086 78H179.641V66H181.086V78ZM188.625 77.1641C188.062 77.8255 187.237 78.1562 186.148 78.1562C185.247 78.1562 184.56 77.8958 184.086 77.375C183.617 76.849 183.38 76.0729 183.375 75.0469V69.5469H184.82V75.0078C184.82 76.2891 185.341 76.9297 186.383 76.9297C187.487 76.9297 188.221 76.5182 188.586 75.6953V69.5469H190.031V78H188.656L188.625 77.1641ZM194.195 67.5V69.5469H195.773V70.6641H194.195V75.9062C194.195 76.2448 194.266 76.5 194.406 76.6719C194.547 76.8385 194.786 76.9219 195.125 76.9219C195.292 76.9219 195.521 76.8906 195.812 76.8281V78C195.432 78.1042 195.062 78.1562 194.703 78.1562C194.057 78.1562 193.57 77.9609 193.242 77.5703C192.914 77.1797 192.75 76.625 192.75 75.9062V70.6641H191.211V69.5469H192.75V67.5H194.195ZM198.836 69.5469L198.883 70.6094C199.529 69.7969 200.372 69.3906 201.414 69.3906C203.201 69.3906 204.102 70.3984 204.117 72.4141V78H202.672V72.4062C202.667 71.7969 202.526 71.3464 202.25 71.0547C201.979 70.763 201.555 70.6172 200.977 70.6172C200.508 70.6172 200.096 70.7422 199.742 70.9922C199.388 71.2422 199.112 71.5703 198.914 71.9766V78H197.469V69.5469H198.836ZM207.867 78H206.422V69.5469H207.867V78ZM206.305 67.3047C206.305 67.0703 206.375 66.8724 206.516 66.7109C206.661 66.5495 206.875 66.4688 207.156 66.4688C207.438 66.4688 207.651 66.5495 207.797 66.7109C207.943 66.8724 208.016 67.0703 208.016 67.3047C208.016 67.5391 207.943 67.7344 207.797 67.8906C207.651 68.0469 207.438 68.125 207.156 68.125C206.875 68.125 206.661 68.0469 206.516 67.8906C206.375 67.7344 206.305 67.5391 206.305 67.3047ZM211.555 69.5469L211.602 70.6094C212.247 69.7969 213.091 69.3906 214.133 69.3906C215.919 69.3906 216.82 70.3984 216.836 72.4141V78H215.391V72.4062C215.385 71.7969 215.245 71.3464 214.969 71.0547C214.698 70.763 214.273 70.6172 213.695 70.6172C213.227 70.6172 212.815 70.7422 212.461 70.9922C212.107 71.2422 211.831 71.5703 211.633 71.9766V78H210.188V69.5469H211.555ZM218.672 73.7031C218.672 72.3854 218.977 71.3385 219.586 70.5625C220.195 69.7812 221.003 69.3906 222.008 69.3906C223.039 69.3906 223.844 69.7552 224.422 70.4844L224.492 69.5469H225.812V77.7969C225.812 78.8906 225.487 79.7526 224.836 80.3828C224.19 81.013 223.32 81.3281 222.227 81.3281C221.617 81.3281 221.021 81.1979 220.438 80.9375C219.854 80.6771 219.409 80.3203 219.102 79.8672L219.852 79C220.471 79.7656 221.229 80.1484 222.125 80.1484C222.828 80.1484 223.375 79.9505 223.766 79.5547C224.161 79.1589 224.359 78.6016 224.359 77.8828V77.1562C223.781 77.8229 222.992 78.1562 221.992 78.1562C221.003 78.1562 220.201 77.7578 219.586 76.9609C218.977 76.1641 218.672 75.0781 218.672 73.7031ZM220.125 73.8672C220.125 74.8203 220.32 75.5703 220.711 76.1172C221.102 76.6589 221.648 76.9297 222.352 76.9297C223.263 76.9297 223.932 76.5156 224.359 75.6875V71.8281C223.917 71.0208 223.253 70.6172 222.367 70.6172C221.664 70.6172 221.115 70.8906 220.719 71.4375C220.323 71.9844 220.125 72.7943 220.125 73.8672Z" fill="#7B7B7B"/>
<path d="M2.44336 5.46875L5.23242 12.4297L8.02148 5.46875H9.48047V14H8.35547V10.6777L8.46094 7.0918L5.66016 14H4.79883L2.00391 7.10938L2.11523 10.6777V14H0.990234V5.46875H2.44336ZM13.9277 14.1172C13.0684 14.1172 12.3691 13.8359 11.8301 13.2734C11.291 12.707 11.0215 11.9512 11.0215 11.0059V10.8066C11.0215 10.1777 11.1406 9.61719 11.3789 9.125C11.6211 8.62891 11.957 8.24219 12.3867 7.96484C12.8203 7.68359 13.2891 7.54297 13.793 7.54297C14.6172 7.54297 15.2578 7.81445 15.7148 8.35742C16.1719 8.90039 16.4004 9.67773 16.4004 10.6895V11.1406H12.1055C12.1211 11.7656 12.3027 12.2715 12.6504 12.6582C13.002 13.041 13.4473 13.2324 13.9863 13.2324C14.3691 13.2324 14.6934 13.1543 14.959 12.998C15.2246 12.8418 15.457 12.6348 15.6562 12.377L16.3184 12.8926C15.7871 13.709 14.9902 14.1172 13.9277 14.1172ZM13.793 8.43359C13.3555 8.43359 12.9883 8.59375 12.6914 8.91406C12.3945 9.23047 12.2109 9.67578 12.1406 10.25H15.3164V10.168C15.2852 9.61719 15.1367 9.19141 14.8711 8.89062C14.6055 8.58594 14.2461 8.43359 13.793 8.43359ZM17.3965 10.7773C17.3965 9.80469 17.627 9.02344 18.0879 8.43359C18.5488 7.83984 19.1523 7.54297 19.8984 7.54297C20.6406 7.54297 21.2285 7.79688 21.6621 8.30469V5H22.7461V14H21.75L21.6973 13.3203C21.2637 13.8516 20.6602 14.1172 19.8867 14.1172C19.1523 14.1172 18.5527 13.8164 18.0879 13.2148C17.627 12.6133 17.3965 11.8281 17.3965 10.8594V10.7773ZM18.4805 10.9004C18.4805 11.6191 18.6289 12.1816 18.9258 12.5879C19.2227 12.9941 19.6328 13.1973 20.1562 13.1973C20.8438 13.1973 21.3457 12.8887 21.6621 12.2715V9.35938C21.3379 8.76172 20.8398 8.46289 20.168 8.46289C19.6367 8.46289 19.2227 8.66797 18.9258 9.07812C18.6289 9.48828 18.4805 10.0957 18.4805 10.9004ZM25.6113 14H24.5273V5H25.6113V14ZM29.9824 14.1172C29.123 14.1172 28.4238 13.8359 27.8848 13.2734C27.3457 12.707 27.0762 11.9512 27.0762 11.0059V10.8066C27.0762 10.1777 27.1953 9.61719 27.4336 9.125C27.6758 8.62891 28.0117 8.24219 28.4414 7.96484C28.875 7.68359 29.3438 7.54297 29.8477 7.54297C30.6719 7.54297 31.3125 7.81445 31.7695 8.35742C32.2266 8.90039 32.4551 9.67773 32.4551 10.6895V11.1406H28.1602C28.1758 11.7656 28.3574 12.2715 28.7051 12.6582C29.0566 13.041 29.502 13.2324 30.041 13.2324C30.4238 13.2324 30.748 13.1543 31.0137 12.998C31.2793 12.8418 31.5117 12.6348 31.7109 12.377L32.373 12.8926C31.8418 13.709 31.0449 14.1172 29.9824 14.1172ZM29.8477 8.43359C29.4102 8.43359 29.043 8.59375 28.7461 8.91406C28.4492 9.23047 28.2656 9.67578 28.1953 10.25H31.3711V10.168C31.3398 9.61719 31.1914 9.19141 30.9258 8.89062C30.6602 8.58594 30.3008 8.43359 29.8477 8.43359ZM34.7344 7.66016L34.7637 8.36328C35.2285 7.81641 35.8555 7.54297 36.6445 7.54297C37.5312 7.54297 38.1348 7.88281 38.4551 8.5625C38.666 8.25781 38.9395 8.01172 39.2754 7.82422C39.6152 7.63672 40.0156 7.54297 40.4766 7.54297C41.8672 7.54297 42.5742 8.2793 42.5977 9.75195V14H41.5137V9.81641C41.5137 9.36328 41.4102 9.02539 41.2031 8.80273C40.9961 8.57617 40.6484 8.46289 40.1602 8.46289C39.7578 8.46289 39.4238 8.58398 39.1582 8.82617C38.8926 9.06445 38.7383 9.38672 38.6953 9.79297V14H37.6055V9.8457C37.6055 8.92383 37.1543 8.46289 36.252 8.46289C35.541 8.46289 35.0547 8.76562 34.793 9.37109V14H33.709V7.66016H34.7344ZM51.1289 14C51.0664 13.875 51.0156 13.6523 50.9766 13.332C50.4727 13.8555 49.8711 14.1172 49.1719 14.1172C48.5469 14.1172 48.0332 13.9414 47.6309 13.5898C47.2324 13.2344 47.0332 12.7852 47.0332 12.2422C47.0332 11.582 47.2832 11.0703 47.7832 10.707C48.2871 10.3398 48.9941 10.1562 49.9043 10.1562H50.959V9.6582C50.959 9.2793 50.8457 8.97852 50.6191 8.75586C50.3926 8.5293 50.0586 8.41602 49.6172 8.41602C49.2305 8.41602 48.9062 8.51367 48.6445 8.70898C48.3828 8.9043 48.252 9.14062 48.252 9.41797H47.1621C47.1621 9.10156 47.2734 8.79688 47.4961 8.50391C47.7227 8.20703 48.0273 7.97266 48.4102 7.80078C48.7969 7.62891 49.2207 7.54297 49.6816 7.54297C50.4121 7.54297 50.9844 7.72656 51.3984 8.09375C51.8125 8.45703 52.0273 8.95898 52.043 9.59961V12.5176C52.043 13.0996 52.1172 13.5625 52.2656 13.9062V14H51.1289ZM49.3301 13.1738C49.6699 13.1738 49.9922 13.0859 50.2969 12.9102C50.6016 12.7344 50.8223 12.5059 50.959 12.2246V10.9238H50.1094C48.7812 10.9238 48.1172 11.3125 48.1172 12.0898C48.1172 12.4297 48.2305 12.6953 48.457 12.8867C48.6836 13.0781 48.9746 13.1738 49.3301 13.1738ZM54.2754 14V8.49805H53.2734V7.66016H54.2754V7.00977C54.2754 6.33008 54.457 5.80469 54.8203 5.43359C55.1836 5.0625 55.6973 4.87695 56.3613 4.87695C56.6113 4.87695 56.8594 4.91016 57.1055 4.97656L57.0469 5.85547C56.8633 5.82031 56.668 5.80273 56.4609 5.80273C56.1094 5.80273 55.8379 5.90625 55.6465 6.11328C55.4551 6.31641 55.3594 6.60938 55.3594 6.99219V7.66016H56.7129V8.49805H55.3594V14H54.2754Z" fill="#7B7B7B"/>
<path d="M2.41211 52V24.9844H10.7246C13.0996 24.9844 15.221 25.5225 17.0889 26.5986C18.9691 27.6624 20.4349 29.1839 21.4863 31.1631C22.5378 33.1299 23.0635 35.3688 23.0635 37.8799V39.123C23.0635 41.6341 22.5439 43.8669 21.5049 45.8213C20.4782 47.7757 19.0247 49.291 17.1445 50.3672C15.2643 51.4434 13.1429 51.9876 10.7803 52H2.41211ZM7.97852 29.4932V47.5283H10.6689C12.846 47.5283 14.5098 46.8171 15.6602 45.3945C16.8105 43.972 17.3981 41.9372 17.4229 39.29V37.8613C17.4229 35.1152 16.8538 33.0371 15.7158 31.627C14.5778 30.2044 12.9141 29.4932 10.7246 29.4932H7.97852ZM34.4004 24.9844L41.3398 44.5781L48.2422 24.9844H55.5527V52H49.9678V44.6152L50.5244 31.8682L43.2324 52H39.4102L32.1367 31.8867L32.6934 44.6152V52H27.127V24.9844H34.4004ZM74.4229 44.9121C74.4229 43.8607 74.0518 43.0566 73.3096 42.5C72.5674 41.931 71.2314 41.3372 69.3018 40.7188C67.3721 40.0879 65.8444 39.4694 64.7188 38.8633C61.651 37.2057 60.1172 34.973 60.1172 32.165C60.1172 30.7054 60.5254 29.4066 61.3418 28.2686C62.1706 27.1182 63.3519 26.2214 64.8857 25.5781C66.432 24.9349 68.1637 24.6133 70.0811 24.6133C72.0107 24.6133 73.7301 24.9658 75.2393 25.6709C76.7484 26.3636 77.9173 27.347 78.7461 28.6211C79.5872 29.8952 80.0078 31.3424 80.0078 32.9629H74.4414C74.4414 31.7259 74.0518 30.7673 73.2725 30.0869C72.4932 29.3942 71.3984 29.0479 69.9883 29.0479C68.6276 29.0479 67.57 29.3385 66.8154 29.9199C66.0609 30.4889 65.6836 31.2435 65.6836 32.1836C65.6836 33.0618 66.1227 33.7979 67.001 34.3916C67.8916 34.9854 69.1966 35.542 70.916 36.0615C74.0827 37.014 76.3896 38.1953 77.8369 39.6055C79.2842 41.0156 80.0078 42.7721 80.0078 44.875C80.0078 47.2129 79.1234 49.0498 77.3545 50.3857C75.5856 51.7093 73.2044 52.3711 70.2109 52.3711C68.1328 52.3711 66.2402 51.9938 64.5332 51.2393C62.8262 50.4723 61.5212 49.4271 60.6182 48.1035C59.7275 46.7799 59.2822 45.2461 59.2822 43.502H64.8672C64.8672 46.4831 66.6484 47.9736 70.2109 47.9736C71.5345 47.9736 72.5674 47.7077 73.3096 47.1758C74.0518 46.6315 74.4229 45.877 74.4229 44.9121Z" fill="#7B7B7B"/>
</svg>
